# xmcd
#
# Track frame offsets: 
#        150
#        2005
#        24032
#        38447
#        52760
#        70842
#        86085
#        89712
#        107407
#        127355
#        131182
#        144822
#        164625
#        181375
#        201592
#        219115
#        222055
#
# Disc length: 3195 seconds
#
# Revision: 1
# Processed by: cddbd v1.5.2PL0 Copyright (c) Steve Scherf et al.
# Submitted via: ExactAudioCopyFreeDBPlugin 1.0
#
DISCID=ea0c7911
DTITLE=Monifah - Home
DYEAR=2000
DGENRE=R&B
TTITLE0=Rescue Me (Skit)
TTITLE1=Rescue Me
TTITLE2=Peaches and Cream
TTITLE3=I Can Tell
TTITLE4=Too Late
TTITLE5=(How) Ya Gonna Love Me
TTITLE6=The Bigger Picture
TTITLE7=Hard To Say Goodbye
TTITLE8=Free Again
TTITLE9=Hurry Up
TTITLE10=Fairytales
TTITLE11=Brown Eyes
TTITLE12=Feva
TTITLE13=Nana
TTITLE14=I Can Tell
TTITLE15=Home (Skit)
TTITLE16=Home
EXTD=YEAR: 2000
EXTT0=
EXTT1=
EXTT2=
EXTT3=
EXTT4=
EXTT5=
EXTT6=
EXTT7=
EXTT8=
EXTT9=
EXTT10=
EXTT11=
EXTT12=
EXTT13=
EXTT14=
EXTT15=
EXTT16=
PLAYORDER=
